<mxfile host="app.diagrams.net" modified="2024-07-31T01:46:09.204Z" agent="Mozilla/5.0 (X11; Linux x86_64; rv:122.0) Gecko/20100101 Firefox/122.0" etag="BQfSUdLfCh-ZX33u7CEe" version="24.6.4" type="github">
  <diagram name="Page-1" id="y4vLvt-76Si4RtkFSOu0">
    <mxGraphModel dx="594" dy="490" grid="1" gridSize="10" guides="1" tooltips="1" connect="1" arrows="1" fold="1" page="1" pageScale="1" pageWidth="850" pageHeight="1100" math="1" shadow="0">
      <root>
        <mxCell id="0" />
        <mxCell id="1" parent="0" />
        <mxCell id="wwrD06Fq2FmV6nign4Eu-43" value="" style="rounded=0;whiteSpace=wrap;html=1;fillColor=none;dashed=1;" parent="1" vertex="1">
          <mxGeometry x="145" y="380" width="440" height="196" as="geometry" />
        </mxCell>
        <mxCell id="wwrD06Fq2FmV6nign4Eu-1" value="" style="rounded=0;whiteSpace=wrap;html=1;" parent="1" vertex="1">
          <mxGeometry x="231" y="400" width="40" height="170" as="geometry" />
        </mxCell>
        <mxCell id="wwrD06Fq2FmV6nign4Eu-2" value="$$H^0_0$$" style="rounded=1;whiteSpace=wrap;html=1;" parent="1" vertex="1">
          <mxGeometry x="236" y="410" width="30" height="30" as="geometry" />
        </mxCell>
        <mxCell id="wwrD06Fq2FmV6nign4Eu-3" value="$$H^0_1$$" style="rounded=1;whiteSpace=wrap;html=1;" parent="1" vertex="1">
          <mxGeometry x="236" y="450" width="30" height="30" as="geometry" />
        </mxCell>
        <mxCell id="wwrD06Fq2FmV6nign4Eu-4" value="$$H^0_2$$" style="rounded=1;whiteSpace=wrap;html=1;" parent="1" vertex="1">
          <mxGeometry x="236" y="490" width="30" height="30" as="geometry" />
        </mxCell>
        <mxCell id="wwrD06Fq2FmV6nign4Eu-6" value="$$H^0_3$$" style="rounded=1;whiteSpace=wrap;html=1;" parent="1" vertex="1">
          <mxGeometry x="236" y="530" width="30" height="30" as="geometry" />
        </mxCell>
        <mxCell id="wwrD06Fq2FmV6nign4Eu-8" value="" style="rounded=0;whiteSpace=wrap;html=1;" parent="1" vertex="1">
          <mxGeometry x="392" y="400" width="40" height="170" as="geometry" />
        </mxCell>
        <mxCell id="wwrD06Fq2FmV6nign4Eu-9" value="$$H^1_0$$" style="rounded=1;whiteSpace=wrap;html=1;" parent="1" vertex="1">
          <mxGeometry x="397" y="410" width="30" height="30" as="geometry" />
        </mxCell>
        <mxCell id="wwrD06Fq2FmV6nign4Eu-10" value="$$H^1_1$$" style="rounded=1;whiteSpace=wrap;html=1;" parent="1" vertex="1">
          <mxGeometry x="397" y="450" width="30" height="30" as="geometry" />
        </mxCell>
        <mxCell id="wwrD06Fq2FmV6nign4Eu-11" value="$$H^1_2$$" style="rounded=1;whiteSpace=wrap;html=1;" parent="1" vertex="1">
          <mxGeometry x="397" y="490" width="30" height="30" as="geometry" />
        </mxCell>
        <mxCell id="wwrD06Fq2FmV6nign4Eu-12" value="$$H^1_3$$" style="rounded=1;whiteSpace=wrap;html=1;" parent="1" vertex="1">
          <mxGeometry x="397" y="530" width="30" height="30" as="geometry" />
        </mxCell>
        <mxCell id="wwrD06Fq2FmV6nign4Eu-13" value="&lt;font style=&quot;font-size: 14px;&quot; face=&quot;Garamond&quot;&gt;Layer Norm&lt;/font&gt;" style="rounded=0;whiteSpace=wrap;html=1;rotation=-90;" parent="1" vertex="1">
          <mxGeometry x="219" y="476.25" width="170" height="17.5" as="geometry" />
        </mxCell>
        <mxCell id="wwrD06Fq2FmV6nign4Eu-46" value="&lt;font style=&quot;font-size: 14px;&quot; face=&quot;Garamond&quot;&gt;Astromer II Encoder&lt;/font&gt;" style="text;html=1;strokeColor=none;fillColor=none;align=center;verticalAlign=middle;whiteSpace=wrap;rounded=0;" parent="1" vertex="1">
          <mxGeometry x="300.5" y="350" width="140" height="30" as="geometry" />
        </mxCell>
        <mxCell id="wwrD06Fq2FmV6nign4Eu-62" value="&lt;font face=&quot;Garamond&quot;&gt;&lt;span style=&quot;font-size: 14px;&quot;&gt;Feed-Forward&lt;/span&gt;&lt;/font&gt;" style="rounded=0;whiteSpace=wrap;html=1;rotation=-90;" parent="1" vertex="1">
          <mxGeometry x="240" y="476.25" width="170" height="17.5" as="geometry" />
        </mxCell>
        <mxCell id="1ioTK7vhVDD2uMA7qPo6-8" style="edgeStyle=orthogonalEdgeStyle;rounded=0;orthogonalLoop=1;jettySize=auto;html=1;exitX=1;exitY=0.5;exitDx=0;exitDy=0;entryX=1;entryY=0.5;entryDx=0;entryDy=0;endArrow=openThin;endFill=0;strokeColor=#CC0000;" parent="1" source="2FoJdGfeoaIXx9aN3MB_-13" target="1ioTK7vhVDD2uMA7qPo6-7" edge="1">
          <mxGeometry relative="1" as="geometry">
            <Array as="points">
              <mxPoint x="369" y="400" />
              <mxPoint x="369" y="390" />
              <mxPoint x="569" y="390" />
            </Array>
            <mxPoint x="368" y="390" as="sourcePoint" />
            <mxPoint x="566.5" y="390.5" as="targetPoint" />
          </mxGeometry>
        </mxCell>
        <mxCell id="wwrD06Fq2FmV6nign4Eu-63" value="&lt;font style=&quot;font-size: 14px;&quot; face=&quot;Garamond&quot;&gt;Layer Norm&lt;/font&gt;" style="rounded=0;whiteSpace=wrap;html=1;rotation=-90;" parent="1" vertex="1">
          <mxGeometry x="260.5" y="476.25" width="170" height="17.5" as="geometry" />
        </mxCell>
        <mxCell id="wwrD06Fq2FmV6nign4Eu-64" value="&lt;font style=&quot;font-size: 14px;&quot; face=&quot;Garamond&quot;&gt;Concatenation&lt;/font&gt;" style="rounded=0;whiteSpace=wrap;html=1;rotation=-90;" parent="1" vertex="1">
          <mxGeometry x="198" y="476.25" width="170" height="17.5" as="geometry" />
        </mxCell>
        <mxCell id="wwrD06Fq2FmV6nign4Eu-65" value="&lt;font style=&quot;font-size: 14px;&quot; face=&quot;Garamond&quot;&gt;Layer Norm&lt;/font&gt;" style="rounded=0;whiteSpace=wrap;html=1;rotation=-90;" parent="1" vertex="1">
          <mxGeometry x="381" y="476.75" width="170" height="17.5" as="geometry" />
        </mxCell>
        <mxCell id="wwrD06Fq2FmV6nign4Eu-66" value="&lt;font face=&quot;Garamond&quot;&gt;&lt;span style=&quot;font-size: 14px;&quot;&gt;Feed-Forward&lt;/span&gt;&lt;/font&gt;" style="rounded=0;whiteSpace=wrap;html=1;rotation=-90;" parent="1" vertex="1">
          <mxGeometry x="402" y="476.75" width="170" height="17.5" as="geometry" />
        </mxCell>
        <mxCell id="1ioTK7vhVDD2uMA7qPo6-9" style="edgeStyle=orthogonalEdgeStyle;rounded=0;orthogonalLoop=1;jettySize=auto;html=1;exitX=0.5;exitY=1;exitDx=0;exitDy=0;entryX=0.5;entryY=0;entryDx=0;entryDy=0;endArrow=open;endFill=0;strokeColor=#CC0000;" parent="1" source="2FoJdGfeoaIXx9aN3MB_-16" target="1ioTK7vhVDD2uMA7qPo6-7" edge="1">
          <mxGeometry relative="1" as="geometry" />
        </mxCell>
        <mxCell id="wwrD06Fq2FmV6nign4Eu-67" value="&lt;font style=&quot;font-size: 14px;&quot; face=&quot;Garamond&quot;&gt;Layer Norm&lt;/font&gt;" style="rounded=0;whiteSpace=wrap;html=1;rotation=-90;" parent="1" vertex="1">
          <mxGeometry x="422.5" y="476.75" width="170" height="17.5" as="geometry" />
        </mxCell>
        <mxCell id="wwrD06Fq2FmV6nign4Eu-68" value="&lt;font style=&quot;font-size: 14px;&quot; face=&quot;Garamond&quot;&gt;Concatenation&lt;/font&gt;" style="rounded=0;whiteSpace=wrap;html=1;rotation=-90;" parent="1" vertex="1">
          <mxGeometry x="360" y="476.75" width="170" height="17.5" as="geometry" />
        </mxCell>
        <mxCell id="wwrD06Fq2FmV6nign4Eu-75" value="" style="endArrow=classic;html=1;rounded=0;" parent="1" target="wwrD06Fq2FmV6nign4Eu-76" edge="1">
          <mxGeometry width="50" height="50" relative="1" as="geometry">
            <mxPoint x="250" y="595" as="sourcePoint" />
            <mxPoint x="515" y="586" as="targetPoint" />
          </mxGeometry>
        </mxCell>
        <mxCell id="wwrD06Fq2FmV6nign4Eu-76" value="&lt;font style=&quot;font-size: 14px;&quot; face=&quot;Garamond&quot;&gt;Data flow&lt;/font&gt;" style="text;html=1;strokeColor=none;fillColor=none;align=center;verticalAlign=middle;whiteSpace=wrap;rounded=0;fontSize=14;" parent="1" vertex="1">
          <mxGeometry x="342" y="580" width="60" height="30" as="geometry" />
        </mxCell>
        <mxCell id="wwrD06Fq2FmV6nign4Eu-77" value="" style="endArrow=classic;html=1;rounded=0;" parent="1" edge="1">
          <mxGeometry width="50" height="50" relative="1" as="geometry">
            <mxPoint x="402" y="595.5" as="sourcePoint" />
            <mxPoint x="500" y="596" as="targetPoint" />
          </mxGeometry>
        </mxCell>
        <mxCell id="1ioTK7vhVDD2uMA7qPo6-7" value="&lt;font style=&quot;font-size: 14px;&quot; face=&quot;Garamond&quot;&gt;Average&lt;/font&gt;" style="rounded=0;whiteSpace=wrap;html=1;rotation=-90;" parent="1" vertex="1">
          <mxGeometry x="484" y="476.75" width="170" height="17.5" as="geometry" />
        </mxCell>
        <mxCell id="2FoJdGfeoaIXx9aN3MB_-1" value="&lt;font face=&quot;Garamond&quot;&gt;Times&lt;/font&gt;" style="rounded=0;whiteSpace=wrap;html=1;rotation=-90;fillColor=#f5f5f5;fontColor=#000000;strokeColor=#000000;" parent="1" vertex="1">
          <mxGeometry x="20" y="473" width="115" height="25" as="geometry" />
        </mxCell>
        <mxCell id="2FoJdGfeoaIXx9aN3MB_-2" value="&lt;font face=&quot;Garamond&quot;&gt;MASK&lt;/font&gt;" style="rounded=0;whiteSpace=wrap;html=1;rotation=-90;fillColor=#f5f5f5;fontColor=#333333;strokeColor=#666666;dashed=1;dashPattern=1 2;" parent="1" vertex="1">
          <mxGeometry x="219" y="310" width="43.13" height="25" as="geometry" />
        </mxCell>
        <mxCell id="2FoJdGfeoaIXx9aN3MB_-13" value="&lt;font style=&quot;font-size: 14px;&quot; face=&quot;Garamond&quot;&gt;$$Z^{0}_{observations}$$&lt;/font&gt;" style="rounded=0;whiteSpace=wrap;html=1;rotation=-90;fillColor=#f5f5f5;strokeColor=#000000;fontColor=#000000;" parent="1" vertex="1">
          <mxGeometry x="285.5" y="472.5" width="170" height="25" as="geometry" />
        </mxCell>
        <mxCell id="2FoJdGfeoaIXx9aN3MB_-16" value="&lt;font style=&quot;font-size: 14px;&quot; face=&quot;Garamond&quot;&gt;$$Z^{1}_{observations}$$&lt;/font&gt;" style="rounded=0;whiteSpace=wrap;html=1;rotation=-90;fillColor=#f5f5f5;strokeColor=#000000;fontColor=#000000;" parent="1" vertex="1">
          <mxGeometry x="447" y="473" width="170" height="25" as="geometry" />
        </mxCell>
        <mxCell id="2FoJdGfeoaIXx9aN3MB_-20" value="&lt;font style=&quot;font-size: 14px;&quot; face=&quot;Garamond&quot;&gt;$$Z_{observations}$$&lt;/font&gt;" style="rounded=0;whiteSpace=wrap;html=1;rotation=-90;fillColor=#f5f5f5;strokeColor=#000000;fontColor=#000000;" parent="1" vertex="1">
          <mxGeometry x="519" y="472" width="170" height="25" as="geometry" />
        </mxCell>
        <mxCell id="2FoJdGfeoaIXx9aN3MB_-22" value="&lt;font face=&quot;Garamond&quot;&gt;Magnitudes&lt;/font&gt;" style="rounded=0;whiteSpace=wrap;html=1;rotation=-90;fillColor=#f5f5f5;fontColor=#000000;strokeColor=#000000;" parent="1" vertex="1">
          <mxGeometry x="50" y="473" width="115" height="25" as="geometry" />
        </mxCell>
      </root>
    </mxGraphModel>
  </diagram>
</mxfile>
